<svg width="188" height="26" viewBox="0 0 188 26" fill="none" xmlns="http://www.w3.org/2000/svg">
<path d="M140.215 0.888227C141.714 0.883442 143.213 0.888227 144.712 0.884399C144.849 0.903538 145.046 0.850906 145.139 0.974353C147.625 3.9964 150.083 7.03854 152.581 10.0529C155.12 7.02035 157.582 3.93707 160.105 0.893012C161.736 0.879615 163.369 0.886313 165.002 0.890141C164.999 9.11033 165.006 17.3305 164.998 25.5507C163.274 25.5498 161.552 25.5584 159.829 25.5459C159.821 20.0683 159.839 14.5898 159.82 9.11224C158.494 10.6357 157.256 12.2195 155.964 13.7668C154.825 15.1209 153.748 16.5209 152.569 17.8473C151.243 16.2377 149.927 14.6214 148.607 13.0089C147.532 11.7257 146.518 10.3993 145.406 9.14191C145.367 14.608 145.397 20.075 145.391 25.5411C143.666 25.5632 141.941 25.5488 140.216 25.5488C140.214 17.3286 140.215 9.10842 140.215 0.888227Z" fill="#C7493A"/>
<path d="M177.894 9.46537C180.124 9.10747 182.507 9.61656 184.314 10.8319C185.89 11.9085 187.069 13.4434 187.616 15.1429C187.991 16.2004 188.016 17.319 187.995 18.4176C183.628 18.4358 179.259 18.4042 174.892 18.4329C175.206 20.032 176.331 21.6291 178.117 22.1794C178.916 22.4569 179.818 22.3985 180.598 22.098C181.467 21.8358 182.197 21.3325 182.901 20.8253C183.984 21.6425 185.047 22.4789 186.127 23.3C185.412 23.8426 184.747 24.4636 183.886 24.8234C181.96 25.7966 179.618 26.1899 177.447 25.7316C176.51 25.477 175.566 25.1909 174.751 24.6971C172.895 23.6349 171.565 21.9181 170.999 20.031C170.76 19.2492 170.679 18.4377 170.611 17.6329C170.703 15.8597 171.186 14.0348 172.393 12.5869C173.691 10.9793 175.678 9.77542 177.894 9.46537ZM175.293 15.6118C177.984 15.63 180.674 15.6329 183.365 15.6099C182.614 14.1936 181.101 12.9381 179.249 12.9448C177.462 12.9917 175.977 14.207 175.293 15.6118Z" fill="#C7493A"/>
<path d="M22.4108 0.0092587C24.0974 -0.00796637 25.7839 0.00447396 27.4715 0.00256006C27.4758 8.4706 27.4758 16.9396 27.4704 25.4076C25.7839 25.4057 24.2771 25.4038 22.4108 25.4009C22.4141 16.9367 22.4141 8.47347 22.4108 0.0092587Z" fill="#161616"/>
<path d="M0.0014085 0.745147C6.07696 0.741319 12.1536 0.742276 18.2291 0.745147C18.2291 2.25138 18.2324 3.75666 18.2281 5.2629C13.8821 5.27247 9.53609 5.25333 5.19119 5.27247C5.19334 6.47918 5.19119 7.68589 5.19119 8.8926C8.98827 8.91844 12.7854 8.88303 16.5814 8.90983C16.5792 10.4314 16.5781 11.952 16.5814 13.4735C16.0669 13.5118 15.5492 13.4898 15.0326 13.4946C11.7521 13.4994 8.47059 13.484 5.19011 13.5022C5.19011 15.9444 5.19442 18.3865 5.18796 20.8286C9.42201 20.8573 13.6561 20.8248 17.8901 20.8449C17.8869 22.3655 17.8933 23.8851 17.8869 25.4057C11.9265 25.4134 5.9661 25.4057 0.00571358 25.4105C-0.0061254 17.1884 0.00463731 8.96725 0.0014085 0.745147Z" fill="#161616"/>
<path d="M97.5552 3.43897C99.1147 3.41122 100.677 3.41409 102.237 3.43801C102.147 5.49928 102.207 7.56437 102.189 9.62851C103.929 9.67157 105.671 9.61416 107.412 9.65818C107.407 10.8285 107.405 11.9998 107.412 13.1702C107.008 13.2266 106.598 13.2056 106.192 13.2075H102.234C102.166 14.9846 102.192 16.7645 102.189 18.5434C102.19 19.0946 102.155 19.6545 102.295 20.197C102.515 20.8219 103.158 21.398 103.932 21.3875C105.05 21.3913 106.169 21.3942 107.288 21.3846C107.751 22.7119 108.135 24.0612 108.55 25.4019C107.411 25.4038 106.333 25.4048 105.225 25.4086C104.229 25.4028 103.214 25.4612 102.247 25.2115C99.8143 24.6909 97.8501 22.7291 97.6295 20.5033C97.6155 20.1674 97.5531 19.8353 97.5552 19.5004C97.5585 17.4028 97.5563 15.3051 97.5574 13.2085C96.7276 13.1903 95.8945 13.2419 95.068 13.1778C95.0733 12.0037 95.0733 10.8304 95.068 9.65626C95.8967 9.62755 96.7265 9.64956 97.5563 9.64286C97.5563 7.5749 97.5595 5.50693 97.5542 3.43897H97.5552Z" fill="#161616"/>
<path d="M39.3977 9.32035C41.4254 8.99881 43.5779 9.38925 45.3107 10.3778C47.7259 11.7845 49.3188 14.2544 49.4619 16.819C49.5351 17.3013 49.5028 17.7893 49.506 18.2745C45.1321 18.2937 40.7581 18.2592 36.3841 18.2917C36.6403 19.5166 37.3194 20.6927 38.4334 21.4717C39.3686 22.109 40.6623 22.4372 41.7989 22.0487C42.7815 21.7894 43.6178 21.2516 44.4013 20.6822C45.4797 21.5042 46.5506 22.3339 47.6236 23.1607C46.8885 23.7119 46.2073 24.3492 45.3193 24.71C43.8675 25.4344 42.1949 25.7789 40.5364 25.7799C39.3234 25.7684 38.1643 25.4105 37.0687 24.977C35.2099 24.1502 33.7365 22.7014 32.9272 21.0047C32.3697 19.8678 32.1662 18.6219 32.1092 17.3922C32.2179 15.7175 32.6592 13.9998 33.758 12.6084C35.0571 10.9175 37.102 9.63901 39.3977 9.32035ZM39.3536 13.0859C38.1815 13.5328 37.3022 14.4467 36.791 15.4678C39.4795 15.4879 42.1691 15.4888 44.8576 15.4678C44.3292 14.4994 43.5112 13.6266 42.4145 13.1405C41.4706 12.7156 40.3147 12.6878 39.3536 13.0859Z" fill="#161616"/>
<path d="M77.5194 9.98544C78.5074 9.56725 79.5826 9.3194 80.6772 9.27347C82.0979 9.14332 83.5896 9.395 84.7832 10.1118C85.2115 10.3481 85.5882 10.6476 86.0015 10.9041C86.0112 10.4534 86.009 10.0027 86.0069 9.5529C87.5825 9.54907 89.1582 9.5328 90.7328 9.56151C90.7274 14.84 90.7306 20.1195 90.7306 25.398C89.1582 25.421 87.5836 25.4057 86.0112 25.4067C86.008 25.0019 86.009 24.598 86.0026 24.1952C85.4042 24.6516 84.7789 25.1081 84.0255 25.3464C82.6597 25.8048 81.1551 25.7818 79.7322 25.5808C77.6539 25.2488 75.721 24.266 74.3304 22.8535C72.9377 21.399 72.1068 19.5032 72.1155 17.5865C72.0132 14.4065 74.2325 11.2591 77.5194 9.98544ZM80.731 13.3357C78.783 13.6008 77.1621 15.0908 76.865 16.8152C76.8177 17.2611 76.8241 17.7128 76.8726 18.1587C77.0631 19.2535 77.7809 20.2525 78.7754 20.9109C79.6623 21.4784 80.7794 21.7655 81.8708 21.6506C84.3753 21.4439 86.3642 19.154 85.9488 16.9482C85.7787 15.7558 85.0113 14.6391 83.8791 13.9797C82.9783 13.4113 81.8202 13.173 80.731 13.3357Z" fill="#161616"/>
<path d="M116.339 9.76343C119.346 8.64093 123.084 9.2639 125.364 11.3548C126.935 12.7099 127.936 14.5692 128.146 16.5051C128.232 17.0908 128.188 17.6831 128.2 18.2726C123.844 18.2908 119.487 18.2678 115.131 18.2841C115.294 19.5884 116.125 20.8018 117.302 21.5836C118.047 22.0229 118.959 22.3081 119.86 22.1932C121.087 22.0018 122.165 21.3942 123.095 20.6832C124.184 21.4927 125.241 22.3348 126.321 23.153C125.837 23.5473 125.345 23.9368 124.824 24.2928C122.473 25.6794 119.357 26.2736 116.678 25.3043C114.081 24.5205 112.088 22.5042 111.298 20.1951C110.759 18.5941 110.682 16.8611 111.165 15.242C111.777 12.8199 113.771 10.7271 116.339 9.76343ZM118.515 12.9338C117.13 13.3022 116.06 14.3099 115.497 15.4697C118.188 15.485 120.88 15.4917 123.57 15.4668C123.025 14.5022 122.211 13.6218 121.106 13.1395C120.305 12.8094 119.365 12.6926 118.515 12.9338Z" fill="#161616"/>
<path d="M51.0139 9.55863C52.6929 9.53853 54.373 9.54141 56.053 9.55672C57.4274 12.5701 58.8201 15.5759 60.1945 18.5884C60.2526 18.7205 60.3366 18.8391 60.4464 18.9444C61.8778 15.8209 63.3039 12.6955 64.7159 9.56437C66.4078 9.53184 68.1019 9.54428 69.7948 9.55767C67.3679 14.8352 64.971 20.1233 62.5483 25.4019C61.119 25.4114 59.6897 25.4172 58.2604 25.399C55.8388 20.1214 53.4506 14.8305 51.0139 9.55863Z" fill="#161616"/>
<path fill-rule="evenodd" clip-rule="evenodd" d="M135.278 7.75883L135.278 11.7375L130.857 15.7164L130.857 11.7377L130.859 7.75891L130.857 3.77998L135.278 3.78016L135.278 7.75883Z" fill="#73AF95"/>
<path fill-rule="evenodd" clip-rule="evenodd" d="M130.859 7.75905L130.857 3.78006L126.437 3.78001L122.016 7.75895L126.437 7.75874L130.859 7.75905Z" fill="#689775"/>
<path fill-rule="evenodd" clip-rule="evenodd" d="M135.278 7.75895L130.859 7.75903L130.857 3.78007L135.278 3.78024L135.278 7.75895Z" fill="#488A6D"/>
</svg>
